<svg width="161" height="28" viewBox="0 0 161 28" fill="none" xmlns="http://www.w3.org/2000/svg">
<path d="M37.0161 23.3617C40.045 23.3617 41.6421 22.0326 42.4131 21.029C43.9826 18.9676 44.1203 15.7128 44.1203 13.6513C44.1203 11.3729 44.0377 8.66055 42.1653 6.62626C41.0088 5.37856 39.1914 4.37498 36.5205 4.37498H28.9758C27.8193 4.37498 27.186 4.89033 26.9106 5.18869C26.2773 5.89391 26.2498 6.70763 26.2498 7.41285V20.9477C26.2498 22.0055 26.6903 22.5751 27.0483 22.8463C27.186 22.9548 27.7642 23.3617 29.1961 23.3617H37.0161ZM29.8844 8.36218C29.8844 7.95533 30.0497 7.57559 30.2699 7.41285C30.5178 7.22298 30.9033 7.22298 31.1235 7.22298H34.8959C36.1901 7.22298 37.9248 7.4671 39.0262 8.6063C40.2378 9.854 40.3755 11.7527 40.3755 13.3801C40.3755 16.6078 39.8798 18.0183 39.4117 18.7506C38.5857 20.0797 37.264 20.5137 35.2539 20.5137H31.0685C30.738 20.5137 30.3801 20.5137 30.1323 20.2424C29.8569 19.9441 29.8844 19.5915 29.8844 19.2117V8.36218Z" fill="#363740"/>
<path d="M47.0122 8.98603V11.4272H54.1989C54.6946 11.4272 55.3279 11.5086 55.7684 12.051C56.1264 12.485 56.1815 12.9732 56.1815 13.4072V14.4108H49.8483C49.0773 14.4108 48.086 14.4651 47.1774 15.2516C46.076 16.201 45.9383 17.4758 45.9383 18.7506C45.9383 19.8085 46.0209 21.6529 47.2049 22.6565C48.031 23.3617 49.0498 23.3617 49.8483 23.3617H56.8148C57.5032 23.3617 58.3017 23.3074 58.8249 22.7921C59.3481 22.2767 59.4031 21.463 59.4031 20.9477V13.4886C59.4031 11.8883 58.935 10.722 58.3292 10.0981C57.6684 9.42002 56.5394 8.98603 55.3003 8.98603H47.0122ZM56.1815 16.852V20.1611C56.1815 20.3781 56.1815 20.5679 55.9612 20.7578C55.7409 20.9205 55.438 20.9205 55.2453 20.9205H50.757C50.344 20.9205 49.9309 20.7035 49.7106 20.4866C49.3251 20.0797 49.2701 19.3202 49.2701 18.8862C49.2701 17.8555 49.5179 17.4758 49.628 17.3402C49.986 16.8791 50.5918 16.852 50.8121 16.852H56.1815Z" fill="#363740"/>
<path d="M61.5974 23.3617H64.819V8.98603H61.5974V23.3617ZM64.819 6.8975V4.37498H61.5974V6.8975H64.819Z" fill="#363740"/>
<path d="M67.0292 23.3617H70.2508V4.37498H67.0292V23.3617Z" fill="#363740"/>
<path d="M86.9446 9.04028H83.6679L78.7115 20.0254L74.0305 8.98603H70.6987L77.1971 23.3074L74.9667 27.9999H78.2434L86.9446 9.04028Z" fill="#363740"/>
<path d="M111.627 14.0582H107.993V19.2389C107.993 19.5372 107.993 19.9169 107.69 20.2153C107.387 20.5137 107.056 20.5137 106.726 20.5137H102.017C100.475 20.5137 99.1261 20.1068 98.3276 18.5336C98.0247 17.9369 97.5566 16.635 97.5566 13.8683C97.5566 11.1288 98.0247 9.88112 98.3551 9.2844C99.0985 7.95533 100.53 7.22298 102.623 7.22298H111.187V4.37498H101.604C99.7594 4.37498 98.1348 4.78183 96.9508 5.5413C94.1146 7.3586 93.8117 10.8576 93.8117 13.9768C93.8117 16.635 94.0045 19.9441 96.345 21.8699C97.2261 22.6022 98.6855 23.3617 100.833 23.3617H109.039C109.59 23.3617 110.416 23.1989 110.911 22.7921C111.269 22.4937 111.627 21.897 111.627 20.9205V14.0582Z" fill="#363740"/>
<path d="M113.818 23.3617H117.04V15.2516C117.04 14.1667 117.177 13.1631 117.783 12.4308C118.554 11.5357 119.683 11.4272 120.537 11.4272H121.886V8.98603H119.711C118.582 8.98603 116.682 9.06741 115.332 10.2337C114.093 11.2916 113.818 12.8376 113.818 14.4108V23.3617Z" fill="#363740"/>
<path d="M129.829 8.82329C128.094 8.82329 125.534 8.87754 123.937 10.3422C122.257 11.8883 122.064 14.6007 122.064 16.2281C122.064 17.6928 122.202 20.4052 123.937 21.9784C125.534 23.4159 128.094 23.5244 129.829 23.5244C131.509 23.5244 134.152 23.4159 135.722 21.9784C136.796 20.9748 137.594 19.1575 137.594 16.1196C137.594 14.6007 137.401 11.8883 135.722 10.3422C134.125 8.87754 131.564 8.82329 129.829 8.82329ZM125.396 16.201C125.396 15.2788 125.396 13.4343 126.305 12.4036C127.213 11.3729 128.783 11.2644 129.829 11.2644C130.986 11.2644 132.39 11.3729 133.326 12.4036C134.345 13.5157 134.262 15.1432 134.262 16.201C134.262 17.4487 134.262 18.832 133.299 19.8898C132.335 20.9477 131.041 21.0833 129.829 21.0833C128.673 21.0833 127.268 20.9477 126.332 19.8898C125.424 18.8591 125.396 17.3944 125.396 16.201Z" fill="#363740"/>
<path d="M140.739 8.98603H137.655L141.125 21.5715C141.317 22.331 141.675 23.5244 143.63 23.5244C145.31 23.5244 145.916 22.6565 146.136 21.9241L148.669 12.919C148.697 12.8105 148.752 12.4579 148.89 12.4579C149.027 12.4579 149.082 12.8105 149.11 12.919L151.643 21.9241C152.056 23.3888 153.378 23.5244 154.149 23.5244C155.223 23.5244 156.186 23.2532 156.655 21.5715L160.124 8.98603H157.04L154.259 19.6186C154.204 19.8085 154.094 20.0526 153.956 20.0526C153.818 20.0526 153.736 19.7542 153.708 19.6457L151.01 10.1524C150.679 8.95891 149.55 8.82329 148.89 8.82329C148.339 8.82329 147.127 8.87754 146.769 10.1524L144.098 19.6457C144.071 19.7271 143.988 20.0526 143.823 20.0526C143.685 20.0526 143.575 19.7542 143.548 19.6186L140.739 8.98603Z" fill="#363740"/>
<path d="M0.688721 9.82693V0L6.08453 5.24997L0.688721 9.82693Z" fill="#03A3EA"/>
<path d="M5.93872 15.1666L6.08455 5.24997L11.1887 10.2083L5.93872 15.1666Z" fill="#039DE5"/>
<path d="M11.1904 19.8379V10.2081L16.4404 15.1664L11.1904 19.8379Z" fill="#0256B2"/>
<path d="M5.93986 15.1666L6.08569 5.24997L0.689887 9.84261L5.93986 15.1666Z" fill="#0399E2"/>
<path d="M11.1904 19.8331V10.2081L5.94046 15.1664L11.1904 19.8331Z" fill="#0381D1"/>
<path d="M11.19 19.8334L5.94006 15.1667L1.85678 18.867L1.12685 19.5417C-1.0607 21.7292 0.252624 26.5417 2.37942 28L11.19 19.8334Z" fill="#0256B2"/>
</svg>
